<?xml version="1.0" encoding="utf-8"?>
<!-- Generator: Adobe Illustrator 18.1.1, SVG Export Plug-In . SVG Version: 6.00 Build 0)  -->
<svg version="1.1" id="Capa_1" xmlns="http://www.w3.org/2000/svg" xmlns:xlink="http://www.w3.org/1999/xlink" x="0px" y="0px"
	 viewBox="0 0 1400 980" enable-background="new 0 0 1400 980" xml:space="preserve">
<path fill="#3A4A60" d="M684.5,157.1c0,1.9-1.5,3.4-3.4,3.4H69.5c-1.9,0-3.4-1.5-3.4-3.4V61.4c0-1.9,1.5-3.4,3.4-3.4h611.6
	c1.9,0,3.4,1.5,3.4,3.4V157.1z"/>
<rect x="162.9" y="66.5" fill="#FFFFFF" width="1" height="85.4"/>
<path fill="#3A4A60" d="M684.5,899.5c0,1.9-1.5,3.4-3.4,3.4H69.5c-1.9,0-3.4-1.5-3.4-3.4v-95.7c0-1.9,1.5-3.4,3.4-3.4h611.6
	c1.9,0,3.4,1.5,3.4,3.4V899.5z"/>
<rect x="162.9" y="808.9" fill="#FFFFFF" width="1" height="85.4"/>
<path fill="#3A4A60" d="M684.5,305.5c0,1.9-1.5,3.4-3.4,3.4H69.5c-1.9,0-3.4-1.5-3.4-3.4v-95.7c0-1.9,1.5-3.4,3.4-3.4h611.6
	c1.9,0,3.4,1.5,3.4,3.4V305.5z"/>
<rect x="162.9" y="215" fill="#FFFFFF" width="1" height="85.4"/>
<path fill="#3A4A60" d="M684.5,454c0,1.9-1.5,3.4-3.4,3.4H69.5c-1.9,0-3.4-1.5-3.4-3.4v-95.7c0-1.9,1.5-3.4,3.4-3.4h611.6
	c1.9,0,3.4,1.5,3.4,3.4V454z"/>
<rect x="162.9" y="363.5" fill="#FFFFFF" width="1" height="85.4"/>
<path fill="#3A4A60" d="M684.5,602.5c0,1.9-1.5,3.4-3.4,3.4H69.5c-1.9,0-3.4-1.5-3.4-3.4v-95.7c0-1.9,1.5-3.4,3.4-3.4h611.6
	c1.9,0,3.4,1.5,3.4,3.4V602.5z"/>
<rect x="162.9" y="512" fill="#FFFFFF" width="1" height="85.4"/>
<path fill="#3A4A60" d="M684.5,751c0,1.9-1.5,3.4-3.4,3.4H69.5c-1.9,0-3.4-1.5-3.4-3.4v-95.7c0-1.9,1.5-3.4,3.4-3.4h611.6
	c1.9,0,3.4,1.5,3.4,3.4V751z"/>
<rect x="162.9" y="660.5" fill="#FFFFFF" width="1" height="85.4"/>
<path fill="#3A4A60" d="M1333.9,157.1c0,1.9-1.5,3.4-3.4,3.4H718.9c-1.9,0-3.4-1.5-3.4-3.4V61.4c0-1.9,1.5-3.4,3.4-3.4h611.6
	c1.9,0,3.4,1.5,3.4,3.4V157.1z"/>
<rect x="812.4" y="66.5" fill="#FFFFFF" width="1" height="85.4"/>
<path fill="#3A4A60" d="M1333.9,602.5c0,1.9-1.5,3.4-3.4,3.4H718.9c-1.9,0-3.4-1.5-3.4-3.4v-95.7c0-1.9,1.5-3.4,3.4-3.4h611.6
	c1.9,0,3.4,1.5,3.4,3.4V602.5z"/>
<rect x="812.4" y="512" fill="#FFFFFF" width="1" height="85.4"/>
<path fill="#3A4A60" d="M1333.9,305.5c0,1.9-1.5,3.4-3.4,3.4H718.9c-1.9,0-3.4-1.5-3.4-3.4v-95.7c0-1.9,1.5-3.4,3.4-3.4h611.6
	c1.9,0,3.4,1.5,3.4,3.4V305.5z"/>
<rect x="812.4" y="215" fill="#FFFFFF" width="1" height="85.4"/>
<path fill="#3A4A60" d="M1333.9,454c0,1.9-1.5,3.4-3.4,3.4H718.9c-1.9,0-3.4-1.5-3.4-3.4v-95.7c0-1.9,1.5-3.4,3.4-3.4h611.6
	c1.9,0,3.4,1.5,3.4,3.4V454z"/>
<rect x="812.4" y="363.5" fill="#FFFFFF" width="1" height="85.4"/>
<path fill="#3A4A60" d="M1333.9,751c0,1.9-1.5,3.4-3.4,3.4H718.9c-1.9,0-3.4-1.5-3.4-3.4v-95.7c0-1.9,1.5-3.4,3.4-3.4h611.6
	c1.9,0,3.4,1.5,3.4,3.4V751z"/>
<rect x="812.4" y="660.5" fill="#FFFFFF" width="1" height="85.4"/>
<path fill="#3A4A60" d="M1333.9,899.5c0,1.9-1.5,3.4-3.4,3.4H718.9c-1.9,0-3.4-1.5-3.4-3.4v-95.7c0-1.9,1.5-3.4,3.4-3.4h611.6
	c1.9,0,3.4,1.5,3.4,3.4V899.5z"/>
<rect x="812.4" y="808.9" fill="#FFFFFF" width="1" height="85.4"/>
<text transform="matrix(1 0 0 1 235.4517 119.9576)" fill="#FFFFFF" font-family="'MyriadPro-Regular'" font-size="36.5725">NEXT PAGE</text>
<text transform="matrix(1 0 0 1 235.4517 268.4459)" fill="#FFFFFF" font-family="'MyriadPro-Regular'" font-size="36.5725">PREVIOUS PAGE</text>
<text transform="matrix(1 0 0 1 235.4517 416.9304)" fill="#FFFFFF" font-family="'MyriadPro-Regular'" font-size="36.5725">HOME PAGE</text>
<text transform="matrix(1 0 0 1 235.4517 565.4188)" fill="#FFFFFF" font-family="'MyriadPro-Regular'" font-size="36.5725">MY PORTFOLIO</text>
<text transform="matrix(1 0 0 1 235.4517 713.9031)" fill="#FFFFFF" font-family="'MyriadPro-Regular'" font-size="36.5725">SIGN IN HERE</text>
<text transform="matrix(1 0 0 1 235.4517 862.3913)" fill="#FFFFFF" font-family="'MyriadPro-Regular'" font-size="36.5725">DOWNLOAD HERE</text>
<text transform="matrix(1 0 0 1 887.2873 119.9574)" fill="#FFFFFF" font-family="'MyriadPro-Regular'" font-size="36.5725">SIGN OUT HERE</text>
<text transform="matrix(1 0 0 1 887.2873 268.4459)" fill="#FFFFFF" font-family="'MyriadPro-Regular'" font-size="36.5725">LIKE US HERE</text>
<text transform="matrix(1 0 0 1 887.2873 416.9304)" fill="#FFFFFF" font-family="'MyriadPro-Regular'" font-size="36.5725">LEARN MORE</text>
<text transform="matrix(1 0 0 1 887.2873 565.4188)" fill="#FFFFFF" font-family="'MyriadPro-Regular'" font-size="36.5725">MORE INFO</text>
<text transform="matrix(1 0 0 1 887.2873 713.9033)" fill="#FFFFFF" font-family="'MyriadPro-Regular'" font-size="36.5725">SEARCH HERE</text>
<text transform="matrix(1 0 0 1 887.2873 862.3913)" fill="#FFFFFF" font-family="'MyriadPro-Regular'" font-size="36.5725">UPLOAD HERE</text>
<g>
	<g>
		<g>
			<path fill="#3A4A60" d="M719.8,931.8c0.5,0,1,0.5,1,0.5l-8.5,18.3c-0.9,0-3.2,0.1-3.7,0.1c-0.5,0-1-0.5-1-0.5l-2.9-18.3
				c1.8,0,4-0.1,4.7-0.1c0.5,0,1,0.5,1,0.5l0.9,8.9c0.1,0.8,0.1,1.8,0.1,3c0.3-1.2,0.6-2.4,0.9-3.2l3.6-9
				C717.2,932,719.2,931.8,719.8,931.8L719.8,931.8z"/>
		</g>
		<g>
			<path fill="#3A4A60" d="M728.6,940.9c0,2-1.1,3.3-3.9,3.9l-2.9,0.6c0.2,1.3,1,1.9,2.3,1.9c1.6,0,2.7-1.2,2.7-1.2s0.8,0.5,0.8,1.4
				c0,1.7-2.5,3.5-5.5,3.5c-3,0-5-1.9-5-5.1c0-3.7,2.6-8.7,7.3-8.7C727,937,728.6,938.5,728.6,940.9L728.6,940.9z M723.7,942.8
				c0.6-0.2,0.8-0.7,0.8-1.3c0-0.6-0.2-1.4-0.8-1.4c-1.2,0-1.7,1.9-1.8,3.2L723.7,942.8z"/>
		</g>
		<g>
			<path fill="#3A4A60" d="M736.4,937c2.4,0,4.1,1.2,4.1,2.9c0,2-2.4,2.8-2.4,2.8s-0.7-2.2-2.4-2.2c-1.1,0-1.8,1.1-1.8,3.5
				c0,2.2,0.6,3.2,2,3.2c1.5,0,2.4-1,2.4-1s0.8,0.5,0.8,1.4c0,1.6-2.4,3.3-5.3,3.3c-3,0-4.9-1.9-4.9-5C729,942,731.7,937,736.4,937
				L736.4,937z"/>
		</g>
		<g>
			<path fill="#3A4A60" d="M747.7,934.1c0.6,0,0.9,0.4,0.9,0.4l-0.4,2.8h3l-0.7,2.1c-0.2,0.7-0.6,1.1-1.2,1.1h-1.5l-0.9,5.4
				c-0.1,0.9,0.1,1.3,0.6,1.3c0.5,0,1.1-0.3,1.1-0.3s0.8,0.5,0.8,1.3c0,1.3-1.9,2.6-4.3,2.6c-2.5,0-3.6-1.6-3.1-4.3l1-6.1h-1.6
				l0.7-2.2c0.2-0.6,0.6-1,1.2-1h0.8l0.9-2.6C746.1,934.4,747.2,934.1,747.7,934.1L747.7,934.1z"/>
		</g>
		<g>
			<path fill="#3A4A60" d="M762,940.9c0,2-1.1,3.3-3.9,3.9l-2.9,0.6c0.2,1.3,1,1.9,2.3,1.9c1.6,0,2.7-1.2,2.7-1.2s0.8,0.5,0.8,1.4
				c0,1.7-2.5,3.5-5.5,3.5c-3,0-5-1.9-5-5.1c0-3.7,2.6-8.7,7.3-8.7C760.4,937,762,938.5,762,940.9L762,940.9z M757.1,942.8
				c0.6-0.2,0.8-0.7,0.8-1.3c0-0.6-0.2-1.4-0.8-1.4c-1.2,0-1.7,1.9-1.8,3.2L757.1,942.8z"/>
		</g>
		<g>
			<path fill="#3A4A60" d="M773.9,940.9c0,2-1.1,3.3-3.9,3.9l-2.9,0.6c0.2,1.3,1,1.9,2.3,1.9c1.6,0,2.7-1.2,2.7-1.2s0.8,0.5,0.8,1.4
				c0,1.7-2.5,3.5-5.5,3.5c-3,0-5-1.9-5-5.1c0-3.7,2.6-8.7,7.3-8.7C772.3,937,773.9,938.5,773.9,940.9L773.9,940.9z M769,942.8
				c0.6-0.2,0.8-0.7,0.8-1.3c0-0.6-0.2-1.4-0.8-1.4c-1.2,0-1.7,1.9-1.8,3.2L769,942.8z"/>
		</g>
		<g>
			<path fill="#3A4A60" d="M783.6,945.8c0,0,1,0.9,1,2.4c0,2-1.7,2.6-3.2,2.6c-1.9,0-3.2-0.9-4.7-1.4c-0.4,0.5-0.8,0.9-1.2,1.4
				c0,0-2.1-0.1-2.1-1.5c0-1.8,2.9-4.8,6.1-8.2c-0.4-0.1-0.7-0.1-1-0.1c-1.8,0-2.5,0.9-2.5,0.9s-0.9-1.1-0.8-2.4
				c0.1-1.9,1.9-2.4,3.4-2.4c1.5,0,2.6,0.6,3.7,1.1l0.9-1.1c0,0,2.1,0.1,2.1,1.5c0,1.7-2.8,4.7-5.9,8c0.6,0.2,1.3,0.3,1.9,0.3
				C782.8,946.8,783.6,945.8,783.6,945.8L783.6,945.8z"/>
		</g>
		<g>
			<path fill="#3A4A60" d="M797.3,949.7c-0.8,4.6-3.9,7-8,7c-2.6,0-4.5-1.4-4.5-2.9c0-1,0.9-1.5,0.9-1.5s0.9,0.8,2.6,0.8
				c1.6,0,3.8-0.7,4.2-3.1l0.3-1.9c-1.1,1.6-2.5,2.8-4.3,2.8c-2,0-3-1.7-2.4-5.1l0.6-3.7c0.4-2.3,0.5-4.1,0.5-4.1
				c1.5-0.3,3.4-0.9,4-0.9c0.5,0,1,0.4,1,0.4l-0.7,4.6l-0.7,4.3c-0.1,0.4,0,0.6,0.4,0.6c1.7,0,2.7-4.9,2.7-4.9
				c0.4-2.3,0.5-4.1,0.5-4.1c1.5-0.3,3.4-0.9,4-0.9c0.5,0,1,0.4,1,0.4l-0.7,4.6L797.3,949.7z"/>
		</g>
	</g>
	<g>
		<path fill="#3A4A60" d="M600.7,937.8h4.6c1,0,1.8,0.1,2.4,0.2c0.7,0.2,1.3,0.6,1.9,1.1s0.9,1.2,1.2,2c0.3,0.8,0.4,1.8,0.4,2.9
			c0,1-0.1,1.9-0.4,2.6c-0.3,0.9-0.8,1.6-1.3,2.2c-0.4,0.4-1,0.8-1.8,1c-0.6,0.2-1.3,0.3-2.2,0.3h-4.7V937.8z M603.2,939.9v8.2h1.9
			c0.7,0,1.2,0,1.5-0.1c0.4-0.1,0.7-0.3,1-0.5c0.3-0.2,0.5-0.6,0.7-1.2c0.2-0.6,0.3-1.3,0.3-2.3c0-1-0.1-1.7-0.3-2.2
			c-0.2-0.5-0.4-0.9-0.7-1.2c-0.3-0.3-0.7-0.5-1.2-0.6c-0.3-0.1-1-0.1-2.1-0.1H603.2z"/>
		<path fill="#3A4A60" d="M618.1,947.3l2.4,0.4c-0.3,0.9-0.8,1.5-1.4,2c-0.7,0.5-1.5,0.7-2.5,0.7c-1.6,0-2.7-0.5-3.5-1.5
			c-0.6-0.8-0.9-1.8-0.9-3.1c0-1.5,0.4-2.6,1.2-3.5c0.8-0.8,1.8-1.3,2.9-1.3c1.3,0,2.4,0.4,3.2,1.3c0.8,0.9,1.1,2.2,1.1,4h-5.9
			c0,0.7,0.2,1.3,0.6,1.6c0.4,0.4,0.8,0.6,1.4,0.6c0.4,0,0.7-0.1,0.9-0.3C617.7,948.1,617.9,947.7,618.1,947.3z M618.2,944.9
			c0-0.7-0.2-1.2-0.5-1.6c-0.3-0.4-0.7-0.5-1.2-0.5c-0.5,0-0.9,0.2-1.3,0.6c-0.3,0.4-0.5,0.9-0.5,1.5H618.2z"/>
		<path fill="#3A4A60" d="M621.3,947.6l2.4-0.4c0.1,0.5,0.3,0.8,0.6,1.1c0.3,0.2,0.7,0.4,1.3,0.4c0.6,0,1.1-0.1,1.4-0.3
			c0.2-0.2,0.3-0.4,0.3-0.6c0-0.2-0.1-0.3-0.2-0.4c-0.1-0.1-0.4-0.2-0.8-0.3c-1.9-0.4-3.1-0.8-3.6-1.2c-0.7-0.5-1.1-1.2-1.1-2
			c0-0.8,0.3-1.4,0.9-2s1.6-0.8,2.9-0.8c1.2,0,2.1,0.2,2.7,0.6c0.6,0.4,1,1,1.2,1.8l-2.2,0.4c-0.1-0.3-0.3-0.6-0.5-0.8
			c-0.3-0.2-0.6-0.3-1.1-0.3c-0.6,0-1.1,0.1-1.3,0.3c-0.2,0.1-0.3,0.3-0.3,0.5c0,0.2,0.1,0.3,0.2,0.4c0.2,0.2,1,0.4,2.2,0.7
			c1.3,0.3,2.1,0.6,2.6,1.1c0.5,0.4,0.7,1,0.7,1.8c0,0.8-0.3,1.5-1,2.1c-0.7,0.6-1.7,0.9-3,0.9c-1.2,0-2.2-0.2-2.9-0.7
			C622,949.1,621.5,948.4,621.3,947.6z"/>
		<path fill="#3A4A60" d="M631.4,940v-2.2h2.4v2.2H631.4z M631.4,950.1v-9h2.4v9H631.4z"/>
		<path fill="#3A4A60" d="M635.6,950.7l2.7,0.3c0,0.3,0.1,0.5,0.3,0.6c0.2,0.2,0.6,0.3,1.1,0.3c0.6,0,1.1-0.1,1.4-0.3
			c0.2-0.1,0.4-0.3,0.5-0.6c0.1-0.2,0.1-0.6,0.1-1.1v-1.3c-0.7,1-1.6,1.5-2.7,1.5c-1.2,0-2.2-0.5-2.9-1.5c-0.6-0.8-0.8-1.8-0.8-3
			c0-1.5,0.4-2.6,1.1-3.4s1.6-1.2,2.7-1.2c1.1,0,2,0.5,2.7,1.5v-1.3h2.2v8c0,1.1-0.1,1.8-0.3,2.4c-0.2,0.5-0.4,0.9-0.7,1.2
			c-0.3,0.3-0.7,0.5-1.3,0.7c-0.5,0.2-1.2,0.3-2,0.3c-1.5,0-2.6-0.3-3.2-0.8c-0.6-0.5-1-1.2-1-2
			C635.6,950.9,635.6,950.8,635.6,950.7z M637.8,945.5c0,1,0.2,1.6,0.6,2.1c0.4,0.4,0.8,0.7,1.4,0.7c0.6,0,1.1-0.2,1.5-0.7
			c0.4-0.5,0.6-1.1,0.6-2c0-0.9-0.2-1.6-0.6-2.1c-0.4-0.4-0.9-0.7-1.5-0.7c-0.6,0-1,0.2-1.4,0.7
			C637.9,943.9,637.8,944.6,637.8,945.5z"/>
		<path fill="#3A4A60" d="M654.2,950.1h-2.4v-4.6c0-1-0.1-1.6-0.2-1.9c-0.1-0.3-0.3-0.5-0.5-0.7c-0.2-0.2-0.5-0.2-0.8-0.2
			c-0.4,0-0.8,0.1-1.1,0.3c-0.3,0.2-0.5,0.5-0.7,0.9s-0.2,1.1-0.2,2.1v4.1h-2.4v-9h2.2v1.3c0.8-1,1.8-1.5,3-1.5c0.5,0,1,0.1,1.4,0.3
			c0.4,0.2,0.8,0.4,1,0.7c0.2,0.3,0.4,0.6,0.5,1c0.1,0.4,0.1,0.9,0.1,1.6V950.1z"/>
		<path fill="#3A4A60" d="M661.5,947.3l2.4,0.4c-0.3,0.9-0.8,1.5-1.4,2c-0.7,0.5-1.5,0.7-2.5,0.7c-1.6,0-2.7-0.5-3.5-1.5
			c-0.6-0.8-0.9-1.8-0.9-3.1c0-1.5,0.4-2.6,1.2-3.5c0.8-0.8,1.8-1.3,2.9-1.3c1.3,0,2.4,0.4,3.2,1.3c0.8,0.9,1.1,2.2,1.1,4H658
			c0,0.7,0.2,1.3,0.6,1.6c0.4,0.4,0.8,0.6,1.4,0.6c0.4,0,0.7-0.1,0.9-0.3C661.2,948.1,661.3,947.7,661.5,947.3z M661.6,944.9
			c0-0.7-0.2-1.2-0.5-1.6c-0.3-0.4-0.7-0.5-1.2-0.5c-0.5,0-0.9,0.2-1.3,0.6c-0.3,0.4-0.5,0.9-0.5,1.5H661.6z"/>
		<path fill="#3A4A60" d="M673.8,950.1h-2.2v-1.3c-0.4,0.5-0.8,0.9-1.3,1.1c-0.5,0.2-1,0.4-1.5,0.4c-1,0-1.9-0.4-2.6-1.2
			c-0.7-0.8-1.1-2-1.1-3.5c0-1.5,0.4-2.7,1.1-3.5c0.7-0.8,1.6-1.2,2.7-1.2c1,0,1.9,0.4,2.6,1.2v-4.5h2.4V950.1z M667.4,945.5
			c0,1,0.1,1.6,0.4,2.1c0.4,0.6,0.9,0.9,1.6,0.9c0.5,0,1-0.2,1.4-0.7c0.4-0.5,0.6-1.2,0.6-2.1c0-1-0.2-1.8-0.6-2.2s-0.8-0.7-1.4-0.7
			c-0.6,0-1,0.2-1.4,0.7C667.6,943.9,667.4,944.6,667.4,945.5z"/>
		<path fill="#3A4A60" d="M680.1,950.1v-12.4h2.4v4.5c0.7-0.8,1.6-1.2,2.6-1.2c1.1,0,2,0.4,2.7,1.2c0.7,0.8,1.1,1.9,1.1,3.4
			c0,1.5-0.4,2.7-1.1,3.5c-0.7,0.8-1.6,1.2-2.7,1.2c-0.5,0-1-0.1-1.5-0.4c-0.5-0.3-0.9-0.6-1.3-1.1v1.3H680.1z M682.5,945.5
			c0,0.9,0.1,1.6,0.4,2.1c0.4,0.6,1,0.9,1.6,0.9c0.5,0,1-0.2,1.3-0.7c0.4-0.4,0.6-1.2,0.6-2.1c0-1-0.2-1.8-0.6-2.2s-0.8-0.7-1.4-0.7
			c-0.6,0-1,0.2-1.4,0.7C682.7,943.9,682.5,944.6,682.5,945.5z"/>
		<path fill="#3A4A60" d="M689.3,941.2h2.5l2.1,6.4l2.1-6.4h2.5l-3.2,8.6l-0.6,1.6c-0.2,0.5-0.4,0.9-0.6,1.2
			c-0.2,0.3-0.4,0.5-0.6,0.7c-0.2,0.2-0.5,0.3-0.9,0.4c-0.4,0.1-0.8,0.1-1.2,0.1c-0.5,0-0.9,0-1.3-0.1l-0.2-1.9
			c0.4,0.1,0.7,0.1,1,0.1c0.6,0,1-0.2,1.2-0.5c0.3-0.3,0.5-0.7,0.6-1.2L689.3,941.2z"/>
	</g>
</g>
<path fill="#FFFFFF" d="M119,263.3L119,263.3l-1.1-1.1c-0.2-0.1-0.4-0.3-0.6-0.5c-1.1-1.1-1.6-2.5-1.6-4c0-1.4,0.5-2.9,1.6-4
	c0.2-0.2,0.4-0.3,0.6-0.5l1.1-1.1h0l12.1-12.1c2.2-2.2,2.2-5.7,0-7.9c-2.2-2.2-5.7-2.2-7.9,0l-21,21c-0.2,0.1-0.4,0.3-0.6,0.5
	c-1.1,1.1-1.6,2.5-1.6,4c0,1.4,0.5,2.9,1.6,4c0.2,0.2,0.4,0.3,0.6,0.5l21,21c2.2,2.2,5.7,2.2,7.9,0c2.2-2.2,2.2-5.7,0-7.9L119,263.3
	z"/>
<path fill="#FFFFFF" d="M113.8,103.7L113.8,103.7l1.1,1.1c0.2,0.1,0.4,0.3,0.6,0.5c1.1,1.1,1.6,2.5,1.6,4c0,1.4-0.5,2.9-1.6,4
	c-0.2,0.2-0.4,0.3-0.6,0.5l-1.1,1.1h0l-12.1,12.1c-2.2,2.2-2.2,5.7,0,7.9c2.2,2.2,5.7,2.2,7.9,0l21-21c0.2-0.1,0.4-0.3,0.6-0.5
	c1.1-1.1,1.6-2.5,1.6-4c0-1.4-0.5-2.9-1.6-4c-0.2-0.2-0.4-0.3-0.6-0.5l-21-21c-2.2-2.2-5.7-2.2-7.9,0c-2.2,2.2-2.2,5.7,0,7.9
	L113.8,103.7z"/>
<g>
	<path fill="#FFFFFF" d="M131.4,579.2c-5.3,0-9.6-4.3-9.6-9.6v-5.4l-10.8,0l0,5.4c0,5.3-4.3,9.5-9.5,9.5s-9.5-4.3-9.5-9.5
		c0-5.3,4.3-9.5,9.5-9.5h5.5l0-10.8h-5.5c-5.3,0-9.5-4.3-9.5-9.5c0-5.3,4.3-9.6,9.5-9.6c5.3,0,9.6,4.3,9.6,9.6v5.4h10.8v-5.4
		c0-5.3,4.3-9.6,9.5-9.6c5.3,0,9.5,4.3,9.5,9.6c0,5.3-4.3,9.5-9.5,9.5h-5.5l0,10.8h5.5c5.3,0,9.5,4.3,9.5,9.5
		C140.9,574.9,136.6,579.2,131.4,579.2z M125.9,564.2v5.4c0,3,2.4,5.5,5.5,5.5c3,0,5.4-2.4,5.4-5.5c0-3-2.4-5.4-5.4-5.4H125.9z
		 M101.4,564.2c-3,0-5.4,2.4-5.4,5.4c0,3,2.4,5.5,5.4,5.5s5.5-2.4,5.5-5.5v-5.4H101.4z M111,560.1h10.8l0-10.8H111V560.1z
		 M125.9,545.2h5.5c3,0,5.4-2.4,5.4-5.4c0-3-2.4-5.5-5.4-5.5s-5.5,2.4-5.5,5.5V545.2z M106.9,545.2v-5.4c0-3-2.4-5.5-5.5-5.5
		c-3,0-5.4,2.4-5.4,5.5c0,3,2.4,5.4,5.4,5.4H106.9z"/>
</g>
<g>
	<path fill="#FFFFFF" d="M142.8,679.8l-1.3-1c-1.3-1.1-3.2-0.9-4.3,0.4L105.2,712l-9.3-12.3c-0.8-1.5-2.7-2-4.1-1.2l-1.4,0.8
		c-1.5,0.8-2,2.7-1.2,4.1l12.6,22.8c0.4,0.7,1.1,1.2,1.9,1.4c1.3,1,3.2,0.8,4.2-0.4l35.3-43.1C144.3,682.8,144.1,680.9,142.8,679.8z
		"/>
</g>
<g>
	<path fill="#FFFFFF" d="M790.3,382.8l-1.3-1c-1.3-1.1-3.2-0.9-4.3,0.4L752.7,415l-9.3-12.3c-0.8-1.5-2.7-2-4.1-1.2l-1.4,0.8
		c-1.5,0.8-2,2.7-1.2,4.1l12.6,22.8c0.4,0.7,1.1,1.2,1.9,1.4c1.3,1,3.2,0.8,4.2-0.4l35.3-43.1C791.8,385.8,791.6,383.9,790.3,382.8z
		"/>
</g>
<path fill="#FFFFFF" d="M150.2,406.5L119,382.9l-0.2-0.1c-0.7-0.5-1.6-0.8-2.5-0.8c-0.9,0-1.8,0.3-2.5,0.8l-0.1,0.1l-31.1,23.6
	c-1,0.7-1.2,2.1-0.4,3.1c0.7,1,2.1,1.2,3.1,0.4l5.9-4.4c-0.1,0.2-0.1,0.4-0.1,0.6v21.2c0,3.6,3,6.6,6.6,6.6h10.7v-16.1
	c0-1.6,1.3-2.9,2.9-2.9h9.5c1.6,0,2.9,1.3,2.9,2.9V434h11.3c3.6,0,6.6-2.9,6.6-6.6v-21.2c0-0.2,0-0.4-0.1-0.6l5.9,4.4
	c1,0.7,2.4,0.6,3.1-0.4C151.3,408.7,151.1,407.3,150.2,406.5z M104.2,380.6c0-1.2-1-2.2-2.2-2.2h-6c-1.2,0-2.2,1-2.2,2.2v12.3
	l10.3-7.9V380.6z"/>
<g>
	<g>
		<path fill="#FFFFFF" d="M142.1,850.9h-10.6c-1,0-1.8-0.8-1.8-1.8v-4.4c0-1,0-2.7,0-3.7V832c0-1-0.8-1.8-1.8-1.8H105
			c-1,0-1.8,0.8-1.8,1.8v9.1c0,1,0,2.7,0,3.7v4.4c0,1-0.8,1.8-1.8,1.8H90.7c-1,0-1.3,0.6-0.6,1.4l25.1,28.5c0.7,0.8,1.8,0.8,2.4,0
			l25.1-28.5C143.4,851.6,143.1,850.9,142.1,850.9z"/>
		<path fill="#FFFFFF" d="M104.4,827.3h23.9c0.8,0,1.4,0.6,1.4,1.4v-6.4c0-0.2-0.2-0.3-0.3-0.3h-25.9c-0.2,0-0.3,0.2-0.3,0.3v6.4
			C103,827.9,103.6,827.3,104.4,827.3z"/>
	</g>
</g>
<g>
	<g>
		<path fill="#FFFFFF" d="M738.2,852.4h10.6c1,0,1.8,0.8,1.8,1.8v4.4c0,1,0,2.7,0,3.7v9.1c0,1,0.8,1.8,1.8,1.8h22.9
			c1,0,1.8-0.8,1.8-1.8v-9.1c0-1,0-2.7,0-3.7v-4.4c0-1,0.8-1.8,1.8-1.8h10.6c1,0,1.3-0.6,0.6-1.4l-25.1-28.5c-0.7-0.8-1.8-0.8-2.4,0
			L737.6,851C736.9,851.8,737.2,852.4,738.2,852.4z"/>
		<path fill="#FFFFFF" d="M775.8,876H752c-0.8,0-1.4-0.6-1.4-1.4v6.4c0,0.2,0.2,0.3,0.3,0.3h25.9c0.2,0,0.3-0.2,0.3-0.3v-6.4
			C777.2,875.4,776.6,876,775.8,876z"/>
	</g>
</g>
<path fill="#FFFFFF" d="M790.6,723.3l-6.4-4.8l-0.8,0.1l-3.7-3.2l0.1-0.1l-0.1-0.6l0,0l0,0L779,714c6.3-9.5,4.7-22.4-4.2-30
	c-9.6-8.3-24.1-7.2-32.3,2.4c-8.3,9.6-7.2,24,2.4,32.3c8.8,7.6,21.7,7.3,30.2-0.2l0.7,0.6l0.6,0l0.1-0.1l3.7,3.2l0,0l0.1,0.7l0,0
	l0,0l6.3,4.8l0,0l0.1,0l0,0l0.9,0l3.2-3.7L790.6,723.3z M761.8,718.7c-9.6,1.1-18.4-5.8-19.5-15.4c-1.1-9.6,5.8-18.4,15.4-19.5
	c9.6-1.1,18.4,5.8,19.5,15.4C778.4,708.8,771.5,717.6,761.8,718.7z"/>
<path fill="#FFFFFF" d="M763.9,526.4c-15.6,0-28.4,12.7-28.4,28.2c0,15.6,12.7,28.3,28.4,28.3c15.6,0,28.4-12.7,28.4-28.3
	C792.2,539.1,779.5,526.4,763.9,526.4z M770.8,571.6c-1.6,0.6-3,1.1-3.9,1.5c-1,0.3-2.1,0.5-3.4,0.5c-2,0-3.5-0.5-4.6-1.5
	c-1.1-1-1.6-2.2-1.6-3.7c0-0.6,0-1.2,0.1-1.8c0.1-0.6,0.2-1.3,0.4-2l2.1-7.2c0.2-0.7,0.3-1.4,0.5-2c0.1-0.6,0.2-1.2,0.2-1.7
	c0-0.9-0.2-1.6-0.6-1.9c-0.4-0.4-1.1-0.5-2.2-0.5c-0.5,0-1.1,0.1-1.6,0.2c-0.6,0.2-1,0.3-1.4,0.5l0.6-2.2c1.3-0.6,2.6-1,3.9-1.4
	c1.2-0.4,2.4-0.6,3.5-0.6c2,0,3.5,0.5,4.6,1.4c1.1,1,1.6,2.2,1.6,3.7c0,0.3,0,0.9-0.1,1.7c-0.1,0.8-0.2,1.5-0.4,2.2l-2,7.2
	c-0.2,0.6-0.3,1.2-0.5,2c-0.1,0.7-0.2,1.3-0.2,1.7c0,0.9,0.2,1.6,0.7,2c0.4,0.3,1.2,0.5,2.2,0.5c0.5,0,1.1-0.1,1.7-0.3
	c0.6-0.2,1.1-0.3,1.4-0.5L770.8,571.6z M766.7,545c-1.9,0-3.5-1-4.4-2.5c-0.4-0.7-0.6-1.4-0.6-2.2c0-0.3,0-0.7,0.1-1
	c0,0,0-0.1,0-0.1c0-0.1,0-0.2,0.1-0.3c0.6-2,2.5-3.4,4.8-3.4c2.7,0,5,2.1,5,4.7C771.7,542.9,769.4,545,766.7,545z"/>
<g>
	<g>
		<path fill="#FFFFFF" d="M750.7,250.5h-9.6c-2,0-4.1,2.3-4.1,4.6v26.3c0,2.3,2.1,4.2,4.1,4.2h9.6c2,0,3.4-2,3.4-4.2v-26.3
			C754.1,252.8,752.7,250.5,750.7,250.5z"/>
		<path fill="#FFFFFF" d="M793.3,260.2c1.1-1,1.7-2.4,1.7-4c0-1.5-0.6-3-1.6-4c-1-1-2.4-1.7-3.9-1.7c0,0,0,0,0,0h-12.7
			c3.5-11.1-2.8-18.3-3-18.6c0,0,0,0,0,0c-1-1.3-2.6-2.1-4.3-2.1c-3,0-5.5,2.5-5.5,5.5c0,0.2,0,0.4,0,0.6c0,0.2,0,0.4,0,0.6
			c1,4.8-1.1,10.3-2.5,13.1c-0.1,0.2-0.2,0.4-0.4,0.6c-0.2,0.2-0.5,0.4-0.8,0.4h-0.4c-0.1,0-0.4,0.1-0.4,0.1
			c-2.3,0.1-4.3,2.1-4.3,4.4v26.3c0,2.4,2.4,4.4,4.7,4.4h29.6c0.1,0,0.2-0.1,0.4-0.1c2.8-0.3,4.9-2.7,4.9-5.5c0-1.5-0.6-2.9-1.6-3.9
			c1.1-1,1.8-2.5,1.8-4.1c0-1.6-0.7-3-1.7-4c1.1-1,1.7-2.4,1.7-4C795,262.6,794.3,261.2,793.3,260.2z"/>
	</g>
</g>
<g>
	<g>
		<path fill="#FFFFFF" d="M760.7,129.4c-0.1-0.2-0.1-0.4-0.1-0.5c0-0.1-0.1-0.2-0.3-0.3c-0.2-0.1-0.3-0.2-0.3-0.2
			c0,0-0.1-0.1-0.4-0.1c-0.3,0-0.4,0-0.4,0h-0.5h-0.4h-10.7c-1.6,0-3-0.6-4.2-1.7c-1.2-1.2-1.7-2.6-1.7-4.2V96.1
			c0-1.6,0.6-3,1.7-4.2c1.2-1.2,2.6-1.7,4.2-1.7h11.9c0.3,0,0.6-0.1,0.8-0.2c0.2-0.2,0.3-0.4,0.4-0.7c0.1-0.3,0.1-0.6,0.1-0.9
			c0-0.3,0-0.6,0-1c0-0.4,0-0.6,0-0.7c0-0.3-0.1-0.6-0.4-0.8c-0.2-0.2-0.5-0.4-0.8-0.4h-11.9c-2.9,0-5.5,1-7.6,3.1
			c-2.1,2.1-3.1,4.6-3.1,7.6v26.2c0,2.9,1,5.5,3.1,7.6c2.1,2.1,4.6,3.1,7.6,3.1h11.9c0.3,0,0.6-0.1,0.8-0.2c0.2-0.2,0.3-0.4,0.4-0.7
			c0.1-0.3,0.1-0.6,0.1-0.9c0-0.3,0-0.6,0-1C760.7,129.8,760.7,129.5,760.7,129.4z"/>
		<path fill="#FFFFFF" d="M794.5,107.6l-20.2-20.2c-0.5-0.5-1-0.7-1.7-0.7s-1.2,0.2-1.7,0.7c-0.5,0.5-0.7,1-0.7,1.7v10.7h-16.7
			c-0.6,0-1.2,0.2-1.7,0.7c-0.5,0.5-0.7,1-0.7,1.7v14.3c0,0.6,0.2,1.2,0.7,1.7c0.5,0.5,1,0.7,1.7,0.7h16.7v10.7
			c0,0.6,0.2,1.2,0.7,1.7c0.5,0.5,1,0.7,1.7,0.7c0.6,0,1.2-0.2,1.7-0.7l20.2-20.2c0.5-0.5,0.7-1,0.7-1.7
			C795.2,108.6,794.9,108,794.5,107.6z"/>
	</g>
</g>
</svg>
